<svg width="19" height="19" viewBox="0 0 19 19" fill="none" xmlns="http://www.w3.org/2000/svg">
<path d="M8.90815 5.6194L7.06758 7.45996C6.38947 8.13807 5.70749 8.81617 5.03326 9.50203C4.87439 9.66477 4.75427 9.88177 4.70777 10.0949C4.46366 11.2147 4.22729 12.3346 3.99092 13.4544L3.85917 14.0744C3.79718 14.3766 3.87855 14.6789 4.08392 14.8842C4.24279 15.0431 4.46366 15.1322 4.69615 15.1322C4.76202 15.1322 4.8279 15.1245 4.89377 15.1129L5.57575 14.9695C6.66072 14.7409 7.74956 14.5084 8.83453 14.2836C9.08639 14.2294 9.29951 14.117 9.48163 13.9349C12.5273 10.8854 15.5729 7.8397 18.6186 4.79792C18.8434 4.57318 18.9673 4.30581 18.9983 3.97645C19.0022 3.9222 18.9983 3.86795 18.9867 3.81758C18.9673 3.74008 18.9518 3.65871 18.9325 3.58121C18.8898 3.38359 18.8434 3.15885 18.7504 2.94185C18.1807 1.63989 17.2353 0.709921 15.9411 0.186812C15.6814 0.0821901 15.4063 0.0473162 15.1661 0.0163172L15.1002 0.00856739C14.7515 -0.0340563 14.4337 0.0821901 14.1586 0.361182C12.4149 2.11263 10.6596 3.86795 8.90815 5.6194ZM14.9723 0.942414C14.9801 0.942414 14.984 0.942414 14.9917 0.942414L15.0576 0.950164C15.2591 0.973413 15.4451 0.996662 15.5923 1.05866C16.6463 1.4849 17.4213 2.24437 17.8901 3.31384C17.9444 3.43784 17.9793 3.59671 18.0141 3.76333C18.0258 3.82533 18.0413 3.88732 18.0529 3.94932C18.0374 4.01907 18.0103 4.06557 17.956 4.11594C14.9065 7.15772 11.8608 10.2073 8.81515 13.2529C8.76478 13.3033 8.71828 13.3265 8.64853 13.342C7.55969 13.5707 6.47472 13.7993 5.38588 14.0279L4.8124 14.148L4.92089 13.6404C5.15726 12.5244 5.39363 11.4046 5.63387 10.2886C5.64162 10.2538 5.67262 10.1995 5.70749 10.1608C6.38172 9.47878 7.05595 8.80067 7.73406 8.12644L9.57463 6.28588C11.33 4.53055 13.0853 2.77523 14.8367 1.01604C14.9103 0.954039 14.9452 0.942414 14.9723 0.942414Z" fill="white"/>
<path d="M1.50733 4.22446H8.27287C8.53637 4.22446 8.74949 4.01134 8.74949 3.74785C8.74949 3.48436 8.53637 3.27124 8.27287 3.27124H1.50733C0.67423 3.27124 0 3.94934 0 4.77857V17.4649C0 18.298 0.678105 18.9723 1.50733 18.9723H14.1898C15.0229 18.9723 15.6972 18.2942 15.6972 17.4649V10.9745C15.6972 10.711 15.484 10.4979 15.2205 10.4979C14.957 10.4979 14.7439 10.711 14.7439 10.9745V17.4649C14.7439 17.7711 14.4921 18.0229 14.1859 18.0229H1.50733C1.20121 18.0229 0.949346 17.7711 0.949346 17.4649V4.78244C0.949346 4.47633 1.20121 4.22446 1.50733 4.22446Z" fill="white"/>
</svg>
