<svg width="18" height="18" viewBox="0 0 18 18" fill="none" xmlns="http://www.w3.org/2000/svg">
<path d="M8.43881 5.32321L6.69525 7.06676C6.05289 7.70912 5.40685 8.35149 4.76816 9.00119C4.61766 9.15536 4.50387 9.36091 4.45983 9.5628C4.22858 10.6236 4.00467 11.6844 3.78076 12.7452L3.65596 13.3325C3.59723 13.6189 3.67431 13.9052 3.86885 14.0997C4.01935 14.2502 4.22858 14.3346 4.44882 14.3346C4.51122 14.3346 4.57362 14.3273 4.63602 14.3163L5.28205 14.1805C6.30983 13.9639 7.34128 13.7437 8.36906 13.5308C8.60766 13.4794 8.80954 13.3729 8.98206 13.2004C11.8672 10.3116 14.7523 7.42648 17.6374 4.54503C17.8503 4.33213 17.9678 4.07886 17.9972 3.76685C18.0008 3.71546 17.9972 3.66408 17.9862 3.61636C17.9678 3.54294 17.9531 3.46586 17.9348 3.39245C17.8944 3.20524 17.8503 2.99235 17.7622 2.78679C17.2227 1.55346 16.327 0.672502 15.101 0.176965C14.8551 0.077858 14.5945 0.0448222 14.3669 0.0154571L14.3045 0.00811581C13.9741 -0.0322613 13.6731 0.077858 13.4125 0.342144C11.7607 2.00127 10.0979 3.66408 8.43881 5.32321ZM14.1834 0.892741C14.1907 0.892741 14.1944 0.892741 14.2017 0.892741L14.2641 0.900082C14.455 0.922106 14.6312 0.94413 14.7707 1.00286C15.7691 1.40663 16.5032 2.12608 16.9474 3.13917C16.9987 3.25663 17.0318 3.40713 17.0648 3.56497C17.0758 3.6237 17.0905 3.68243 17.1015 3.74116C17.0868 3.80723 17.0611 3.85128 17.0098 3.899C14.121 6.78045 11.2358 9.66925 8.35071 12.5544C8.30299 12.6021 8.25894 12.6241 8.19287 12.6388C7.16142 12.8554 6.13364 13.0719 5.10219 13.2885L4.55893 13.4023L4.66171 12.9214C4.88562 11.8643 5.10953 10.8035 5.33711 9.74633C5.34445 9.71329 5.37382 9.6619 5.40685 9.6252C6.04555 8.97917 6.68424 8.3368 7.3266 7.69811L9.07016 5.95456C10.733 4.29176 12.3958 2.62895 14.0549 0.962483C14.1246 0.903753 14.1577 0.892741 14.1834 0.892741Z" fill="black"/>
<path d="M1.42788 4.00173H7.83682C8.08643 4.00173 8.28831 3.79985 8.28831 3.55024C8.28831 3.30064 8.08643 3.09875 7.83682 3.09875H1.42788C0.638692 3.09875 0 3.74112 0 4.52663V16.5443C0 17.3335 0.642363 17.9722 1.42788 17.9722H13.4419C14.2311 17.9722 14.8698 17.3298 14.8698 16.5443V10.396C14.8698 10.1464 14.6679 9.9445 14.4183 9.9445C14.1687 9.9445 13.9668 10.1464 13.9668 10.396V16.5443C13.9668 16.8343 13.7282 17.0729 13.4382 17.0729H1.42788C1.1379 17.0729 0.899308 16.8343 0.899308 16.5443V4.53031C0.899308 4.24032 1.1379 4.00173 1.42788 4.00173Z" fill="black"/>
</svg>
